<?xml version="1.0" encoding="UTF-8"?>
<svg id="Layer_2" data-name="Layer 2" xmlns="http://www.w3.org/2000/svg" viewBox="0 0 256.72 252.98">
  <defs>
    <style>
      .cls-1 {
        fill: #fff8af;
        stroke: #fff8af;
      }

      .cls-1, .cls-2, .cls-3, .cls-4, .cls-5 {
        stroke-miterlimit: 10;
      }

      .cls-2 {
        fill: #7699ad;
        stroke: #7699ad;
      }

      .cls-3 {
        fill: #fff;
        stroke: #000;
      }

      .cls-4 {
        fill: #e17122;
      }

      .cls-4, .cls-5 {
        stroke: #ef7a71;
      }

      .cls-5 {
        fill: #ef7a71;
      }
    </style>
  </defs>
  <g id="Layer_1-2" data-name="Layer 1">
    <g>
      <path class="cls-1" d="M256.22,128.34c0,44.61-23.67,83.71-59.18,105.48-5.07,3.11-10.39,5.87-15.91,8.24-15.04,6.46-31.71,8.28-49.03,10.03-39.03,3.94-26.25-43.03-23.67-115.75,2.04-57.57-52.68-128.01,23.67-131.75,68.47-3.36,124.12,55.4,124.12,123.75Z"/>
      <path class="cls-2" d="M128.5,252.44c.43-.01.84-.04,1.26-.06,2.67-.46,5.35-.89,8.03-1.3,28.09-8.93-16.43-67.29-12.62-126.64C129.88,51.11,154.61.53,128.5.5,57.81.42.5,56.9.5,126.47s57.33,127.76,128,125.97Z"/>
      <path class="cls-3" d="M48.76,101.15c1.07-.98,2-2.46,2.85-4.34-2.81,3.66-4.2,5.58-2.85,4.34Z"/>
      <path class="cls-3" d="M208.95,47.37c-.67-.53-1.96-.94-3.71-1.25,5.15,2.89,7.11,3.96,3.71,1.25Z"/>
      <path class="cls-5" d="M48.67,123.29c-.3.88-.53,1.69-.68,2.41-.62,2.88-.34,1.58.68-2.41Z"/>
      <path class="cls-4" d="M196.15,91.74c-11.07-10.06-32.01-46.84-50.28-47.15,7.87-7.56,44.6,9.6,58.92,16.15-11.72-11.4-49.11-42.91-68.65-38.5,12.47-7.91,60.84,1.96,65.95,4.85,3.45,1.95-47.92-33.87-78.5-23.85-15.11,4.95-11.4,9.94-25.03,11.8-43.85,5.99-73.66,54.61-70.58,60.87,7.67-19.01,42.06-30.04,56.02-34.18-16.49,10.84-31.4,66.2-35.34,81.57,6.81-20.31,49.18-81.53,44.16-62.39-6.63,25.31-7.67,104.88-6.11,76.34.9-16.43,10.34-90.32,26.77-62.35,7.79,13.26,4.48,30.68,4.16,36.35-2.29,40.52-17.83,123.36,3.52,137.16,1.81,1.17,4.35,2.02,7.2,2.77,3.73.92,17.04-.22,24.86-1.63,1.53-.59,3.11-.63,4.7-.46-17.08-17.93-31.3-107.7-27.02-174.2.18-2.84,3.6-10.15,3.6-10.15,22.94-5.89,74.96,39.11,61.64,27Z"/>
    </g>
  </g>
</svg>